<svg width="47" height="18" viewBox="0 0 47 18" fill="none" xmlns="http://www.w3.org/2000/svg">
<path d="M42.4944 17.4903V5.27391H45.8826V17.4903H42.4944ZM44.1965 3.69914C43.6927 3.69914 43.2606 3.53212 42.9001 3.19808C42.5448 2.85874 42.3672 2.45312 42.3672 1.98122C42.3672 1.51462 42.5448 1.1143 42.9001 0.780257C43.2606 0.440912 43.6927 0.27124 44.1965 0.27124C44.7002 0.27124 45.1297 0.440912 45.4849 0.780257C45.8455 1.1143 46.0257 1.51462 46.0257 1.98122C46.0257 2.45312 45.8455 2.85874 45.4849 3.19808C45.1297 3.53212 44.7002 3.69914 44.1965 3.69914Z" fill="black"/>
<path d="M27.3507 4.04126V1.2019H40.7283V4.04126H35.7415V17.4904H32.3375V4.04126H27.3507Z" fill="#FC5201"/>
<path d="M21.5999 17.7288C20.3433 17.7288 19.2616 17.4743 18.3549 16.9653C17.4535 16.451 16.7589 15.7245 16.2711 14.786C15.7833 13.8422 15.5394 12.7261 15.5394 11.4377C15.5394 10.181 15.7833 9.07818 16.2711 8.12907C16.7589 7.17997 17.4456 6.44031 18.3311 5.91008C19.2218 5.37986 20.2664 5.11475 21.4647 5.11475C22.2706 5.11475 23.0209 5.24465 23.7155 5.50446C24.4154 5.75897 25.0252 6.14338 25.5448 6.6577C26.0697 7.17202 26.478 7.81889 26.7696 8.59832C27.0612 9.37245 27.207 10.2791 27.207 11.3184V12.2489H16.8915V10.1492H24.0177C24.0177 9.66142 23.9117 9.22929 23.6996 8.85283C23.4875 8.47637 23.1932 8.1821 22.8168 7.97001C22.4456 7.75261 22.0135 7.64392 21.5204 7.64392C21.006 7.64392 20.5501 7.76322 20.1524 8.00182C19.76 8.23512 19.4525 8.5506 19.2298 8.94827C19.0071 9.34064 18.8931 9.77807 18.8878 10.2606V12.2569C18.8878 12.8613 18.9991 13.3836 19.2218 13.8237C19.4498 14.2638 19.7706 14.6031 20.1842 14.8417C20.5978 15.0803 21.0882 15.1996 21.6556 15.1996C22.032 15.1996 22.3767 15.1466 22.6895 15.0406C23.0023 14.9345 23.2701 14.7754 23.4928 14.5634C23.7155 14.3513 23.8852 14.0915 24.0018 13.7839L27.1354 13.9907C26.9764 14.7436 26.6503 15.4011 26.1572 15.9631C25.6694 16.5199 25.0384 16.9547 24.2643 17.2675C23.4955 17.575 22.6073 17.7288 21.5999 17.7288Z" fill="black"/>
<path d="M13.6241 1.2019V17.4904H10.6496L3.56311 7.23851H3.44381V17.4904H0V1.2019H3.02228L10.0531 11.4458H10.1962V1.2019H13.6241Z" fill="black"/>
</svg>
